<svg xmlns="http://www.w3.org/2000/svg" viewBox="0 0 1920 960" role="img" aria-labelledby="title desc"><title id="title">Enhanced low-light ocean scene</title><desc id="desc">An original cool-toned ocean horizon illustration used to show enhanced color in low light.</desc><defs><linearGradient id="sky" x1="0" y1="0" x2="0" y2="1"><stop stop-color="#56616b"/><stop offset=".54" stop-color="#7a8186"/><stop offset="1" stop-color="#30353c"/></linearGradient></defs><rect width="1920" height="960" fill="url(#sky)"/><path d="M0 450c284-18 448-4 674 13 245 18 421 2 638-18 234-22 396-15 608 20v495H0z" fill="#59636b"/><path d="M0 516c250 42 463 24 710 12 290-15 518-14 775 19 164 21 294 23 435 9" fill="none" stroke="#f5f7f4" stroke-width="9" opacity=".75"/><path d="M0 706c272-31 456-18 700 11 260 32 490 29 748-14 180-30 310-24 472 5" fill="none" stroke="#f7f4dc" stroke-width="8" opacity=".62"/><circle cx="1565" cy="172" r="9" fill="#f7f6e7"/><path d="M0 740c312 70 610 74 940 21 308-49 624-57 980 12" fill="none" stroke="#d9eef4" stroke-width="18" opacity=".22"/></svg>
