<svg xmlns="http://www.w3.org/2000/svg" viewBox="0 0 1920 960" role="img" aria-labelledby="title desc"><title id="title">Low-light ocean scene</title><desc id="desc">An original dark ocean horizon illustration used to show low-light imaging.</desc><defs><linearGradient id="sky" x1="0" y1="0" x2="0" y2="1"><stop stop-color="#07080b"/><stop offset="1" stop-color="#24231f"/></linearGradient></defs><rect width="1920" height="960" fill="url(#sky)"/><path d="M0 450c284-18 448-4 674 13 245 18 421 2 638-18 234-22 396-15 608 20v495H0z" fill="#111312"/><path d="M0 516c250 42 463 24 710 12 290-15 518-14 775 19 164 21 294 23 435 9" fill="none" stroke="#7f765f" stroke-width="9" opacity=".32"/><path d="M0 706c272-31 456-18 700 11 260 32 490 29 748-14 180-30 310-24 472 5" fill="none" stroke="#c5bba2" stroke-width="8" opacity=".24"/><circle cx="1565" cy="172" r="9" fill="#d8d8c7"/><circle cx="240" cy="512" r="5" fill="#d8d8c7" opacity=".7"/></svg>
